<?xml version="1.0" encoding="UTF-8"?>
<svg id="signature" xmlns="http://www.w3.org/2000/svg" viewBox="0 0 300.43 199.98">
  <defs>
    <style>
      .cls-1 {
        fill: none;
        stroke: #231f20;
        stroke-miterlimit: 10;
      }
    </style>
  </defs>
  <path class="cls-1" d="M46.96,83.27v-36.09h18.98l6.57,6.58v7.01l-6.57,6.58h-15.13v15.91h-3.86ZM64.38,63.51l4.28-4.29v-3.87l-4.28-4.3h-13.56v12.46h13.56Z"/>
  <path class="cls-1" d="M47.11,83.13v-35.8h18.78l6.48,6.5v6.89l-6.48,6.5h-15.21v15.91h-3.57ZM64.44,63.65l4.36-4.38v-3.99l-4.36-4.38h-13.76v12.75h13.76Z"/>
  <path class="cls-1" d="M47.25,82.99v-35.52h18.58l6.4,6.42v6.77l-6.4,6.42h-15.3v15.91h-3.29ZM64.5,63.79l4.45-4.46v-4.11l-4.45-4.46h-13.96v13.03h13.96Z"/>
  <path class="cls-1" d="M47.39,82.85v-35.24h18.38l6.32,6.33v6.66l-6.32,6.33h-15.38v15.91h-3.01ZM64.56,63.93l4.53-4.54v-4.22l-4.53-4.54h-14.16v13.31h14.16Z"/>
  <path class="cls-1" d="M50.25,82.71h-2.72v-34.95h18.18l6.24,6.25v6.54l-6.24,6.25h-15.46v15.91ZM50.25,64.07h14.36l4.61-4.63v-4.34l-4.61-4.63h-14.36v13.6Z"/>
  <polygon class="cls-1" points="101.21 83.27 101.21 57.34 92.28 75.18 83.36 57.34 83.36 83.27 79.51 83.27 79.51 40.99 92.28 66.54 105.06 40.99 105.06 83.27 101.21 83.27"/>
  <polygon class="cls-1" points="101.35 83.13 101.35 56.74 92.28 74.86 83.22 56.74 83.22 83.13 79.65 83.13 79.65 41.59 92.28 66.86 104.92 41.59 104.92 83.13 101.35 83.13"/>
  <polygon class="cls-1" points="101.49 82.99 101.49 56.14 92.28 74.54 83.08 56.14 83.08 82.99 79.79 82.99 79.79 42.19 92.28 67.17 104.78 42.19 104.78 82.99 101.49 82.99"/>
  <polygon class="cls-1" points="101.63 82.85 101.63 55.53 92.28 74.23 82.94 55.54 82.94 82.85 79.93 82.85 79.93 42.79 92.28 67.49 104.64 42.79 104.64 82.85 101.63 82.85"/>
  <polygon class="cls-1" points="104.49 82.71 101.77 82.71 101.77 54.93 92.28 73.91 82.8 54.93 82.8 82.71 80.08 82.71 80.08 43.39 92.28 67.81 104.49 43.39 104.49 82.71"/>
</svg>