<?xml version="1.0" encoding="UTF-8"?>
<svg id="signature" xmlns="http://www.w3.org/2000/svg" viewBox="0 0 59.1 62.43">
  <defs>
    <style>
      .cls-1 {
        fill: none;
        stroke: #1d1d1b;
        stroke-miterlimit: 10;
      }
    </style>
  </defs>
  <path class="cls-1" d="M.5,44.41V8.32h18.98l6.57,6.58v7.01l-6.57,6.58H4.36v15.91H.5ZM17.92,24.64l4.28-4.29v-3.87l-4.28-4.3H4.36v12.46h13.56Z"/>
  <path class="cls-1" d="M.64,44.26V8.46h18.78l6.48,6.5v6.89l-6.48,6.5H4.21v15.91H.64ZM17.97,24.78l4.36-4.38v-3.99l-4.36-4.38H4.21v12.75h13.76Z"/>
  <path class="cls-1" d="M.78,44.12V8.6h18.58l6.4,6.42v6.77l-6.4,6.42H4.07v15.91H.78ZM18.03,24.92l4.45-4.46v-4.11l-4.45-4.46H4.07v13.03h13.96Z"/>
  <path class="cls-1" d="M.92,43.98V8.74h18.38l6.32,6.33v6.66l-6.32,6.33H3.93v15.91H.92ZM18.09,25.06l4.53-4.54v-4.22l-4.53-4.54H3.93v13.31h14.16Z"/>
  <path class="cls-1" d="M3.79,43.84H1.07V8.89h18.18l6.24,6.25v6.54l-6.24,6.25H3.79v15.91ZM3.79,25.2h14.36l4.61-4.63v-4.34l-4.61-4.63H3.79v13.6Z"/>
  <polygon class="cls-1" points="54.74 44.41 54.74 18.47 45.82 36.31 36.9 18.47 36.9 44.41 33.04 44.41 33.04 2.12 45.82 27.67 58.6 2.12 58.6 44.41 54.74 44.41"/>
  <polygon class="cls-1" points="54.88 44.26 54.88 17.87 45.82 35.99 36.76 17.87 36.76 44.26 33.19 44.26 33.19 2.72 45.82 27.99 58.46 2.72 58.46 44.26 54.88 44.26"/>
  <polygon class="cls-1" points="55.02 44.12 55.02 17.27 45.82 35.67 36.62 17.27 36.62 44.12 33.33 44.12 33.33 3.32 45.82 28.31 58.31 3.32 58.31 44.12 55.02 44.12"/>
  <polygon class="cls-1" points="55.17 43.98 55.17 16.67 45.82 35.36 36.48 16.67 36.48 43.98 33.47 43.98 33.47 3.92 45.82 28.62 58.17 3.92 58.17 43.98 55.17 43.98"/>
  <polygon class="cls-1" points="58.03 43.84 55.31 43.84 55.31 16.07 45.82 35.04 36.33 16.07 36.33 43.84 33.61 43.84 33.61 4.52 45.82 28.94 58.03 4.52 58.03 43.84"/>
</svg>